<svg width="295" height="249" viewBox="0 0 295 249" fill="none" xmlns="http://www.w3.org/2000/svg">
<path d="M94.599 144.571C94.8349 144.335 101.66 143.592 109.766 142.918L124.504 141.694L124.547 138.597C124.57 136.894 125.22 133.734 125.989 131.576C126.871 129.102 127.061 127.042 126.504 126.001C125.596 124.304 125.59 110.754 126.496 111.301C129.359 113.024 135.576 115.255 139.693 116.036C148.251 117.659 149.377 116.957 142.002 114.598C138.152 113.366 133.826 111.715 132.388 110.929C128.728 108.929 119.1 100.069 119.813 99.3564C120.136 99.0329 121.886 98.4164 123.702 97.9865C126.898 97.2295 126.858 97.2015 122.453 97.1024C119.029 97.0253 116.9 97.6801 113.844 99.75C111.61 101.263 107.636 103.944 105.013 105.708C99.1537 109.649 94.3613 110.43 84.008 109.134C77.3429 108.3 75.6445 107.704 73.7938 105.552C68.2618 99.121 65.2497 79.9936 67.4256 65.1124C69.1286 53.466 70.3133 50.8997 76.6512 45.1283L82.3 39.9844L86.6512 41.9278C91.1389 43.9323 95.0757 48.2633 93.9968 50.009C93.66 50.5541 92.116 51 90.5658 51C89.0156 51 87.1471 51.7232 86.4136 52.607C85.4132 53.8124 83.8832 54.0989 80.2905 53.7537C76.1493 53.3558 75.6671 53.4937 76.7279 54.7718C77.4027 55.5848 77.8151 57.5814 77.6445 59.2086C77.4362 61.194 78.8796 65.2397 82.0327 71.5087C87.0794 81.5427 88.4304 87.8991 86.6201 93.0923C85.16 97.2808 85.8647 97.903 88.1384 94.4328C89.1261 92.9254 90.0148 89.6649 90.1134 87.1874C90.2562 83.5968 90.7704 82.4177 92.6475 81.3768C93.9427 80.6586 95.6342 80.055 96.4065 80.0355C97.1787 80.0166 99.3013 78.2583 101.123 76.1296C107.424 68.7685 116.132 66.9021 122.863 71.4699C126.403 73.8724 127.772 73.6822 125.252 71.1377C124.251 70.1267 124.346 69.6813 125.73 68.9006C126.68 68.3644 128.855 65.805 130.564 63.2129L133.67 58.4999L130.499 61.863C126.308 66.3081 124.774 64.8266 127.452 58.9218C128.556 56.4898 129.447 53.375 129.434 52C129.415 50.1418 128.917 50.7595 127.493 54.4063C125.341 59.9161 120.992 65 118.43 65C117.496 65 115.923 63.7625 114.934 62.25C112.344 58.2892 110.402 56.5343 108.59 56.516C107.37 56.5047 107.058 55.5887 107.243 52.5689C107.389 50.1921 106.897 47.9885 105.999 46.9957C105.181 46.0927 104.253 43.3616 103.935 40.9269C103.452 37.2306 103.796 35.833 106.018 32.4591C110.881 25.0725 118.582 21.3548 125.222 23.188C131.858 25.0205 136.502 31.6965 136.502 39.4041C136.502 41.786 142.563 48.5671 145.535 49.5103C147.955 50.2783 152.31 48.1172 150.543 47.0252C149.589 46.4355 149.651 45.6199 150.819 43.3827C154.146 37.0089 163.416 31.1496 170.502 30.9407L174.002 30.8375L171.19 29.5931C168.65 28.4694 168.536 28.217 170.013 26.9911C170.913 26.2444 175.183 25.3738 179.503 25.0564C183.822 24.7389 187.624 24.212 187.95 23.8852C188.277 23.5583 185.335 22.9928 181.411 22.6281C176.039 22.1288 173.544 22.3314 171.303 23.4494L168.328 24.9337L160.665 17.7168C154.622 12.0251 152.894 9.76027 152.49 6.99997L151.978 3.49997L150.859 6.55801C148.984 11.6842 144.497 15.664 139.792 16.3748L135.582 17.0108L134.484 12.9301C133.879 10.6857 133.529 8.09989 133.705 7.18388C134.228 4.46833 143.294 0.603305 149.002 0.662038C153.896 0.712306 171.374 5.20324 178.692 8.29073C183.158 10.1749 190.69 16.9502 193.658 21.7522C195.767 25.1636 195.781 25.4055 194.181 30.381C193.275 33.1964 192.066 37.3888 191.494 39.6974C190.525 43.6071 185.518 49.9999 183.425 49.9999C182.918 49.9999 182.502 47.836 182.502 45.1911C182.502 42.5336 181.85 39.5137 181.045 38.4411C179.725 36.6823 179.643 36.9854 180.174 41.6664C180.497 44.5079 180.457 48.0459 180.084 49.5286C179.418 52.182 179.375 52.1951 177.342 50.3622L175.275 48.5L177.038 52.5C181.916 63.5707 182.479 66.5037 182.543 81.1816C182.617 98.0184 181.802 101.086 173.139 116.586C170.039 122.134 167.495 127.084 167.487 127.586C167.438 130.511 165.75 131.179 162.567 129.534C157.086 126.699 156.946 128.421 162.337 132.379C165.166 134.455 168.249 137.455 169.188 139.045C171.024 142.154 170.8 142.095 187.502 143.836C193.517 144.462 181.113 144.762 145.086 144.861C117.082 144.937 94.3632 144.807 94.599 144.571ZM136.113 138.392C138.195 133.41 137.328 133.189 134.617 138.011C133.347 140.271 132.859 142 133.491 142C134.104 142 135.284 140.376 136.113 138.392ZM167.041 108.348C166.707 106.566 166.337 100.471 166.218 94.8042C166.023 85.4587 165.727 84.0004 163.029 79.1298C160.393 74.37 155.119 69 153.081 69C152.678 69 153.855 70.7607 155.697 72.9125C160.852 78.9349 162.968 85.8491 163.221 97.5C163.413 106.28 164.439 113.005 166.349 118C167.183 120.18 167.757 112.167 167.041 108.348Z" fill="black"/>
<path d="M67.7719 248.5V240.1H69.3799L74.3359 246.148H73.5559V240.1H75.4759V248.5H73.8799L68.9119 242.452H69.6919V248.5H67.7719Z" fill="black"/>
<path d="M83.9433 248.644C83.2793 248.644 82.6633 248.536 82.0953 248.32C81.5353 248.104 81.0473 247.8 80.6313 247.408C80.2233 247.016 79.9033 246.556 79.6713 246.028C79.4473 245.5 79.3353 244.924 79.3353 244.3C79.3353 243.676 79.4473 243.1 79.6713 242.572C79.9033 242.044 80.2273 241.584 80.6433 241.192C81.0593 240.8 81.5473 240.496 82.1073 240.28C82.6673 240.064 83.2753 239.956 83.9313 239.956C84.5953 239.956 85.2033 240.064 85.7553 240.28C86.3153 240.496 86.7993 240.8 87.2073 241.192C87.6233 241.584 87.9473 242.044 88.1793 242.572C88.4113 243.092 88.5273 243.668 88.5273 244.3C88.5273 244.924 88.4113 245.504 88.1793 246.04C87.9473 246.568 87.6233 247.028 87.2073 247.42C86.7993 247.804 86.3153 248.104 85.7553 248.32C85.2033 248.536 84.5993 248.644 83.9433 248.644ZM83.9313 246.988C84.3073 246.988 84.6513 246.924 84.9633 246.796C85.2833 246.668 85.5633 246.484 85.8033 246.244C86.0433 246.004 86.2273 245.72 86.3553 245.392C86.4913 245.064 86.5593 244.7 86.5593 244.3C86.5593 243.9 86.4913 243.536 86.3553 243.208C86.2273 242.88 86.0433 242.596 85.8033 242.356C85.5713 242.116 85.2953 241.932 84.9753 241.804C84.6553 241.676 84.3073 241.612 83.9313 241.612C83.5553 241.612 83.2073 241.676 82.8873 241.804C82.5753 241.932 82.2993 242.116 82.0593 242.356C81.8193 242.596 81.6313 242.88 81.4953 243.208C81.3673 243.536 81.3033 243.9 81.3033 244.3C81.3033 244.692 81.3673 245.056 81.4953 245.392C81.6313 245.72 81.8153 246.004 82.0473 246.244C82.2873 246.484 82.5673 246.668 82.8873 246.796C83.2073 246.924 83.5553 246.988 83.9313 246.988Z" fill="black"/>
<path d="M98.1867 248.5V240.1H101.823C102.575 240.1 103.223 240.224 103.767 240.472C104.311 240.712 104.731 241.06 105.027 241.516C105.323 241.972 105.471 242.516 105.471 243.148C105.471 243.772 105.323 244.312 105.027 244.768C104.731 245.224 104.311 245.576 103.767 245.824C103.223 246.064 102.575 246.184 101.823 246.184H99.2667L100.131 245.308V248.5H98.1867ZM100.131 245.524L99.2667 244.6H101.715C102.315 244.6 102.763 244.472 103.059 244.216C103.355 243.96 103.503 243.604 103.503 243.148C103.503 242.684 103.355 242.324 103.059 242.068C102.763 241.812 102.315 241.684 101.715 241.684H99.2667L100.131 240.76V245.524Z" fill="black"/>
<path d="M107.733 248.5L111.477 240.1H113.397L117.153 248.5H115.113L112.041 241.084H112.809L109.725 248.5H107.733ZM109.605 246.7L110.121 245.224H114.441L114.969 246.7H109.605Z" fill="black"/>
<path d="M120.424 248.5V240.1H122.368V248.5H120.424Z" fill="black"/>
<path d="M126.762 248.5V240.1H128.37L133.326 246.148H132.546V240.1H134.466V248.5H132.87L127.902 242.452H128.682V248.5H126.762Z" fill="black"/>
<path d="M144.652 248.5V240.1H146.26L151.216 246.148H150.436V240.1H152.356V248.5H150.76L145.792 242.452H146.572V248.5H144.652Z" fill="black"/>
<path d="M160.823 248.644C160.159 248.644 159.543 248.536 158.975 248.32C158.415 248.104 157.927 247.8 157.511 247.408C157.103 247.016 156.783 246.556 156.551 246.028C156.327 245.5 156.215 244.924 156.215 244.3C156.215 243.676 156.327 243.1 156.551 242.572C156.783 242.044 157.107 241.584 157.523 241.192C157.939 240.8 158.427 240.496 158.987 240.28C159.547 240.064 160.155 239.956 160.811 239.956C161.475 239.956 162.083 240.064 162.635 240.28C163.195 240.496 163.679 240.8 164.087 241.192C164.503 241.584 164.827 242.044 165.059 242.572C165.291 243.092 165.407 243.668 165.407 244.3C165.407 244.924 165.291 245.504 165.059 246.04C164.827 246.568 164.503 247.028 164.087 247.42C163.679 247.804 163.195 248.104 162.635 248.32C162.083 248.536 161.479 248.644 160.823 248.644ZM160.811 246.988C161.187 246.988 161.531 246.924 161.843 246.796C162.163 246.668 162.443 246.484 162.683 246.244C162.923 246.004 163.107 245.72 163.235 245.392C163.371 245.064 163.439 244.7 163.439 244.3C163.439 243.9 163.371 243.536 163.235 243.208C163.107 242.88 162.923 242.596 162.683 242.356C162.451 242.116 162.175 241.932 161.855 241.804C161.535 241.676 161.187 241.612 160.811 241.612C160.435 241.612 160.087 241.676 159.767 241.804C159.455 241.932 159.179 242.116 158.939 242.356C158.699 242.596 158.511 242.88 158.375 243.208C158.247 243.536 158.183 243.9 158.183 244.3C158.183 244.692 158.247 245.056 158.375 245.392C158.511 245.72 158.695 246.004 158.927 246.244C159.167 246.484 159.447 246.668 159.767 246.796C160.087 246.924 160.435 246.988 160.811 246.988Z" fill="black"/>
<path d="M179.122 248.644C178.458 248.644 177.846 248.54 177.286 248.332C176.734 248.116 176.25 247.812 175.834 247.42C175.426 247.028 175.106 246.568 174.874 246.04C174.65 245.512 174.538 244.932 174.538 244.3C174.538 243.668 174.65 243.088 174.874 242.56C175.106 242.032 175.43 241.572 175.846 241.18C176.262 240.788 176.75 240.488 177.31 240.28C177.87 240.064 178.486 239.956 179.158 239.956C179.902 239.956 180.57 240.08 181.162 240.328C181.762 240.576 182.266 240.936 182.674 241.408L181.426 242.56C181.122 242.24 180.79 242.004 180.43 241.852C180.07 241.692 179.678 241.612 179.254 241.612C178.846 241.612 178.474 241.676 178.138 241.804C177.802 241.932 177.51 242.116 177.262 242.356C177.022 242.596 176.834 242.88 176.698 243.208C176.57 243.536 176.506 243.9 176.506 244.3C176.506 244.692 176.57 245.052 176.698 245.38C176.834 245.708 177.022 245.996 177.262 246.244C177.51 246.484 177.798 246.668 178.126 246.796C178.462 246.924 178.83 246.988 179.23 246.988C179.614 246.988 179.986 246.928 180.346 246.808C180.714 246.68 181.07 246.468 181.414 246.172L182.518 247.576C182.062 247.92 181.53 248.184 180.922 248.368C180.322 248.552 179.722 248.644 179.122 248.644ZM180.742 247.324V244.168H182.518V247.576L180.742 247.324Z" fill="black"/>
<path d="M185.62 248.5L189.364 240.1H191.284L195.04 248.5H193L189.928 241.084H190.696L187.612 248.5H185.62ZM187.492 246.7L188.008 245.224H192.328L192.856 246.7H187.492Z" fill="black"/>
<path d="M198.312 248.5V240.1H200.256V248.5H198.312Z" fill="black"/>
<path d="M204.649 248.5V240.1H206.257L211.213 246.148H210.433V240.1H212.353V248.5H210.757L205.789 242.452H206.569V248.5H204.649Z" fill="black"/>
<path d="M9.73584 188.316H29.8958V196.116H9.73584V188.316ZM10.4558 211.416H0.73584V169.416H32.4758V177.216H10.4558V211.416Z" fill="black"/>
<path d="M51.0562 211.416V169.416H60.7762V211.416H51.0562Z" fill="black"/>
<path d="M91.4436 211.416V177.336H78.0037V169.416H114.604V177.336H101.164V211.416H91.4436Z" fill="black"/>
<path d="M131.833 211.416V169.416H139.873L157.753 199.056H153.493L171.074 169.416H179.053L179.173 211.416H170.053L169.993 183.396H171.673L157.633 206.976H153.253L138.913 183.396H140.953V211.416H131.833Z" fill="black"/>
<path d="M195.618 211.416L214.338 169.416H223.938L242.718 211.416H232.518L217.158 174.336H220.998L205.578 211.416H195.618ZM204.978 202.416L207.558 195.036H229.158L231.798 202.416H204.978Z" fill="black"/>
<path d="M252.049 211.416L270.109 186.516V193.596L252.829 169.416H263.869L275.809 186.276L271.189 186.336L282.949 169.416H293.509L276.349 193.176V186.216L294.529 211.416H283.309L270.949 193.596H275.389L263.209 211.416H252.049Z" fill="black"/>
</svg>
