<svg width="639" height="221" viewBox="0 0 639 221" fill="none" xmlns="http://www.w3.org/2000/svg">
<path d="M34.9406 219.158C37.0559 218.242 70.0399 215.045 85.3644 214.272L88.152 214.131L88.3461 209.103C88.53 204.338 89.4937 200.356 91.8939 194.441C92.5117 192.918 92.4515 192.488 91.3026 190.206C89.6769 186.978 89.2923 181.716 90.4047 177.922C91.0949 175.567 91.1023 174.883 90.4612 172.752C89.6831 170.167 89.5005 167.687 90.048 167.14C90.2271 166.961 91.5967 167.64 93.0914 168.649C99.2577 172.811 109.676 175.612 120.421 175.995C124.06 176.125 126.442 176.112 125.714 175.965C119.327 174.679 109.927 172.131 106.265 170.693C99.4275 168.009 95.0601 165.129 88.5405 159.004C85.2605 155.922 81.8027 153.028 80.8566 152.572C79.9105 152.117 79.1382 151.609 79.1405 151.445C79.1427 151.28 80.1457 150.574 81.3694 149.875C82.9872 148.95 84.7549 148.517 87.8491 148.285L92.104 147.965L89.4576 147.174C81.9583 144.931 76.4589 146.95 65.0318 156.144C52.92 165.889 42.576 168.667 30.4417 165.431C28.8406 165.005 25.9554 164.652 24.0301 164.649C15.6681 164.633 12.3957 162.963 9.44923 157.203C7.48575 153.365 4.4514 144.46 2.90199 137.988C-0.219276 124.952 0.388733 100.877 4.2001 86.5882C6.61559 77.5326 7.30408 76.2105 11.2598 73.0315C13.2221 71.4546 17.0478 68.0288 19.7615 65.4186L24.6954 60.6728L27.1715 61.6342C28.5334 62.163 31.3396 63.2268 33.4074 63.9982C38.0937 65.7464 38.6547 66.2165 39.364 68.9894C39.7768 70.6035 40.3803 71.473 41.5399 72.1246C42.7488 72.8038 43.1446 73.4037 43.1446 74.5567C43.1446 77.0341 41.5176 78.0434 37.1512 78.2746C34.0643 78.438 33.1049 78.7082 32.0295 79.7169C31.3018 80.3995 29.5333 81.4767 28.0996 82.1107C24.7535 83.5904 20.257 83.2485 16.8572 81.2561C15.5953 80.5166 14.5629 80.1068 14.5629 80.3454C14.5629 80.9867 16.2191 83.2364 17.5858 84.4517C18.6672 85.4133 18.7296 85.7315 18.2452 87.815C17.196 92.3274 18.5246 96.4622 25.159 109.332C31.6557 121.934 32.825 125.507 32.7799 132.621C32.7468 137.838 32.5538 138.698 29.6915 146.382C29.4746 146.964 30.3738 146.302 31.6898 144.911C35.5301 140.85 37.3697 134.265 36.3535 128.215L35.8802 125.397L37.8299 124.166C40.0907 122.739 43.5032 121.521 46.7428 120.986C48.6604 120.669 49.2346 120.265 50.3984 118.411C51.1578 117.202 53.4686 114.524 55.5336 112.461C61.9095 106.091 70.462 102.843 77.2649 104.209C81.215 105.002 85.6529 107.255 88.7477 110.037C90.157 111.304 91.3101 112.096 91.3101 111.797C91.3101 110.595 90.2832 108.684 88.764 107.057L87.1605 105.341L89.103 104.531C91.6185 103.482 94.0684 101.113 96.7282 97.1582C97.903 95.4115 99.7203 93.0825 100.767 91.9825L102.669 89.9827L100.913 90.595C99.6891 91.0216 98.2889 92.3803 96.296 95.0752C94.7228 97.2025 93.2109 99.0819 92.9363 99.2516C92.6617 99.4213 91.8722 98.9954 91.1818 98.3051C90.4915 97.6147 89.6151 96.946 89.2343 96.8191C88.7489 96.6573 89.188 95.5886 90.7025 93.2454C94.4212 87.4919 96.3618 80.5294 95.1396 77.3256C94.6875 76.1403 94.6044 76.2619 94.2496 78.6281C93.4443 83.9978 90.3164 90.3099 86.1162 95.041C83.5149 97.971 81.8326 99.0031 79.6511 99.0072C77.2454 99.0116 75.6635 97.8775 74.9158 95.612C74.5877 94.6179 73.7539 93.434 73.063 92.9813C72.372 92.5285 71.6649 91.7115 71.4916 91.1657C71.3184 90.62 70.6029 89.9119 69.9016 89.5924C69.082 89.219 68.5656 88.4811 68.4562 87.5272C68.2767 85.9625 68.0192 85.9014 64.5508 86.6009C61.9698 87.1213 61.4882 86.059 61.8385 80.6179C62.0024 78.0707 62.2967 75.3359 62.4924 74.5406C62.792 73.3227 62.6385 73.0151 61.5184 72.5892C59.8902 71.9702 58.4941 70.0719 58.4941 68.4772C58.4941 67.8244 58.1219 66.1941 57.667 64.8543C57.2122 63.5146 56.84 60.8919 56.84 59.0263C56.84 51.2066 64.1592 41.9527 74.3304 36.9127C78.676 34.7593 78.9305 34.7019 84.1247 34.7019C88.994 34.7019 89.7566 34.8444 92.8979 36.3413C101.43 40.4071 106.58 48.4773 106.7 57.9696C106.722 59.7278 107.02 61.9266 107.361 62.8557C108.864 66.9406 117.52 74.799 121.298 75.5077C123.366 75.8956 127.613 74.2488 129.272 72.4161C130.153 71.4426 130.13 71.4203 128.611 71.7617C127.745 71.9562 126.62 72.2283 126.111 72.3664C124.737 72.7389 124.952 71.5654 127.01 67.4567C132.546 56.4045 143.577 48.9379 157.1 47.09C162.323 46.3763 162.153 45.845 156.473 45.1215L153.622 44.7584L155.414 42.9906C157.514 40.9195 161.248 38.9047 163.912 38.4049C164.948 38.2106 169.341 38.0029 173.675 37.9434C180.207 37.8538 181.948 37.6579 183.857 36.7979L186.159 35.7605L181.739 35.7354C179.309 35.7216 174.104 35.5133 170.174 35.2723C162.174 34.7818 159.595 35.1971 156.98 37.3974L155.382 38.7419L152.854 37.0126C151.464 36.0615 148.421 33.2509 146.092 30.7667C138.181 22.3282 135.973 20.3658 132.908 19.0467L129.93 17.7646L130.31 14.8535C130.796 11.1354 130.646 8.6481 129.815 6.64948C129.172 5.10413 129.146 5.15373 128.842 8.50201C128.459 12.7154 126.759 16.4376 124.648 17.6848C123.778 18.1989 122.142 19.9791 121.014 21.6409C119.885 23.3026 118.397 24.9398 117.707 25.2791C117.016 25.6184 114.098 25.9999 111.221 26.1269C104.968 26.4028 104.422 26.0677 103.497 21.3847C103.161 19.6847 102.525 17.1629 102.084 15.7806C101.637 14.3801 101.429 12.5995 101.613 11.7587C102.118 9.46374 104.925 7.14638 108.398 6.15758C110.082 5.6782 112.942 4.47126 114.754 3.47549C121.77 -0.381051 127.689 -0.798557 134.481 2.08408C138.614 3.83837 142.656 5.01315 153.766 7.68943C166.378 10.7274 173.724 13.9942 181.154 19.8693C188.359 25.5668 195.839 35.6911 195.805 39.6988C195.797 40.7349 194.934 43.8454 193.891 46.6109C192.847 49.3765 191.493 54.0999 190.882 57.1074C189.086 65.945 186.24 70.4978 179.729 74.9464C177.68 76.3467 175.903 77.3918 175.781 77.2688C175.659 77.1458 175.767 75.9733 176.019 74.6633C177.354 67.7578 176.073 61.3667 172.561 57.407L170.732 55.3442L172.123 58.7846C173.22 61.4995 173.524 63.1738 173.564 66.724C173.611 70.9247 172.243 78.4825 171.232 79.598C171.015 79.8376 170.314 79.1865 169.674 78.1511C168.546 76.3257 165.979 73.9184 165.583 74.3145C165.476 74.4219 166.924 77.6664 168.802 81.5246C172.396 88.9079 175.03 96.4379 176.03 102.186C176.373 104.159 176.562 109.691 176.474 115.154C176.39 120.394 176.514 127.659 176.751 131.297C177.623 144.717 174.484 154.829 163.689 173.376C159.058 181.332 154.821 189.806 153.234 194.283C152.563 196.175 151.831 197.931 151.608 198.185C151.384 198.439 150.528 198.173 149.705 197.592C147.917 196.332 142.663 194.466 139.807 194.078C138.679 193.924 137.846 193.884 137.954 193.988C138.063 194.093 140.057 195.449 142.385 197.003C147.804 200.619 153.913 206.399 156.464 210.323C157.562 212.012 158.544 213.643 158.645 213.946C158.747 214.255 161.742 214.706 165.428 214.97C179.626 215.984 202.129 218.442 203.784 219.159C204.387 219.42 168.028 219.617 119.362 219.617C70.6727 219.617 34.3377 219.42 34.9406 219.158ZM106.502 207.629L108.726 201.958L107.125 203.81C105.527 205.66 101.367 212.279 101.367 212.971C101.367 213.173 102.022 213.329 102.822 213.319C104.177 213.303 104.431 212.91 106.502 207.629ZM153.076 169.936C152.93 166.734 152.439 163.719 151.725 161.635C150.703 158.654 150.656 157.974 151.193 153.983C151.534 151.45 151.668 146.135 151.51 141.377C151.202 132.063 149.991 126.84 146.474 119.653C144.19 114.986 136.997 107.292 133.124 105.373L130.742 104.193L133.46 107.027C140.241 114.099 144.683 123.439 146.609 134.675C147.512 139.943 147.648 151.218 146.879 157.137C146.408 160.766 146.462 161.181 147.724 163.672C149.427 167.033 150.868 172.688 151.41 178.14L151.832 182.374L152.568 178.669C153.024 176.381 153.218 173.041 153.076 169.936Z" fill="#830000"/>
<path d="M338.765 98.407C328.832 98.407 321.065 95.6404 315.465 90.107C309.865 84.5737 307.065 76.6737 307.065 66.407V27.207H323.265V65.807C323.265 72.4737 324.632 77.2737 327.365 80.207C330.099 83.1404 333.932 84.607 338.865 84.607C343.799 84.607 347.632 83.1404 350.365 80.207C353.099 77.2737 354.465 72.4737 354.465 65.807V27.207H370.465V66.407C370.465 76.6737 367.665 84.5737 362.065 90.107C356.465 95.6404 348.699 98.407 338.765 98.407Z" fill="white"/>
<path d="M409.474 98.407C403.874 98.407 398.507 97.6737 393.374 96.207C388.241 94.6737 384.107 92.707 380.974 90.307L386.474 78.107C389.474 80.2404 393.007 82.007 397.074 83.407C401.207 84.7404 405.374 85.407 409.574 85.407C412.774 85.407 415.34 85.107 417.274 84.507C419.274 83.8404 420.74 82.9404 421.674 81.807C422.607 80.6737 423.074 79.3737 423.074 77.907C423.074 76.0404 422.341 74.5737 420.874 73.507C419.407 72.3737 417.474 71.4737 415.074 70.807C412.674 70.0737 410.007 69.407 407.074 68.807C404.207 68.1404 401.307 67.3404 398.374 66.407C395.507 65.4737 392.874 64.2737 390.474 62.807C388.074 61.3404 386.107 59.407 384.574 57.007C383.107 54.607 382.374 51.5404 382.374 47.807C382.374 43.807 383.44 40.1737 385.574 36.907C387.774 33.5737 391.041 30.9404 395.374 29.007C399.774 27.007 405.274 26.007 411.874 26.007C416.274 26.007 420.607 26.5404 424.874 27.607C429.141 28.607 432.907 30.1404 436.174 32.207L431.174 44.507C427.907 42.6404 424.641 41.2737 421.374 40.407C418.107 39.4737 414.907 39.007 411.774 39.007C408.64 39.007 406.074 39.3737 404.074 40.107C402.074 40.8404 400.641 41.807 399.774 43.007C398.907 44.1404 398.474 45.4737 398.474 47.007C398.474 48.807 399.207 50.2737 400.674 51.407C402.14 52.4737 404.074 53.3404 406.474 54.007C408.874 54.6737 411.507 55.3404 414.374 56.007C417.307 56.6737 420.207 57.4404 423.074 58.307C426.007 59.1737 428.674 60.3404 431.074 61.807C433.474 63.2737 435.407 65.207 436.874 67.607C438.407 70.007 439.174 73.0404 439.174 76.707C439.174 80.6404 438.074 84.2404 435.874 87.507C433.674 90.7737 430.374 93.407 425.974 95.407C421.64 97.407 416.14 98.407 409.474 98.407Z" fill="white"/>
<path d="M483.743 98.407C478.343 98.407 473.31 97.5404 468.643 95.807C464.043 94.007 460.043 91.4737 456.643 88.207C453.243 84.9404 450.577 81.107 448.643 76.707C446.777 72.307 445.843 67.4737 445.843 62.207C445.843 56.9404 446.777 52.107 448.643 47.707C450.577 43.307 453.243 39.4737 456.643 36.207C460.11 32.9404 464.143 30.4404 468.743 28.707C473.343 26.907 478.377 26.007 483.843 26.007C489.91 26.007 495.377 27.0737 500.243 29.207C505.177 31.2737 509.31 34.3404 512.643 38.407L502.243 48.007C499.843 45.2737 497.177 43.2404 494.243 41.907C491.31 40.507 488.11 39.807 484.643 39.807C481.377 39.807 478.377 40.3404 475.643 41.407C472.91 42.4737 470.543 44.007 468.543 46.007C466.543 48.007 464.977 50.3737 463.843 53.107C462.777 55.8404 462.243 58.8737 462.243 62.207C462.243 65.5404 462.777 68.5737 463.843 71.307C464.977 74.0404 466.543 76.407 468.543 78.407C470.543 80.407 472.91 81.9404 475.643 83.007C478.377 84.0737 481.377 84.607 484.643 84.607C488.11 84.607 491.31 83.9404 494.243 82.607C497.177 81.207 499.843 79.107 502.243 76.307L512.643 85.907C509.31 89.9737 505.177 93.0737 500.243 95.207C495.377 97.3404 489.877 98.407 483.743 98.407Z" fill="white"/>
<path d="M523.583 97.207V27.207H539.783V84.007H574.883V97.207H523.583Z" fill="white"/>
<path d="M357.144 220.407C351.61 220.407 346.477 219.507 341.744 217.707C337.077 215.907 333.01 213.374 329.544 210.107C326.144 206.84 323.477 203.007 321.544 198.607C319.677 194.207 318.744 189.407 318.744 184.207C318.744 179.007 319.677 174.207 321.544 169.807C323.477 165.407 326.177 161.574 329.644 158.307C333.11 155.04 337.177 152.507 341.844 150.707C346.51 148.907 351.577 148.007 357.044 148.007C362.577 148.007 367.644 148.907 372.244 150.707C376.91 152.507 380.944 155.04 384.344 158.307C387.81 161.574 390.51 165.407 392.444 169.807C394.377 174.14 395.344 178.94 395.344 184.207C395.344 189.407 394.377 194.24 392.444 198.707C390.51 203.107 387.81 206.94 384.344 210.207C380.944 213.407 376.91 215.907 372.244 217.707C367.644 219.507 362.61 220.407 357.144 220.407ZM357.044 206.607C360.177 206.607 363.044 206.074 365.644 205.007C368.31 203.94 370.644 202.407 372.644 200.407C374.644 198.407 376.177 196.04 377.244 193.307C378.377 190.574 378.944 187.54 378.944 184.207C378.944 180.874 378.377 177.84 377.244 175.107C376.177 172.374 374.644 170.007 372.644 168.007C370.71 166.007 368.41 164.474 365.744 163.407C363.077 162.34 360.177 161.807 357.044 161.807C353.91 161.807 351.01 162.34 348.344 163.407C345.744 164.474 343.444 166.007 341.444 168.007C339.444 170.007 337.877 172.374 336.744 175.107C335.677 177.84 335.144 180.874 335.144 184.207C335.144 187.474 335.677 190.507 336.744 193.307C337.877 196.04 339.41 198.407 341.344 200.407C343.344 202.407 345.677 203.94 348.344 205.007C351.01 206.074 353.91 206.607 357.044 206.607Z" fill="white"/>
<path d="M441.519 220.407C435.985 220.407 430.852 219.507 426.119 217.707C421.452 215.907 417.385 213.374 413.919 210.107C410.519 206.84 407.852 203.007 405.919 198.607C404.052 194.207 403.119 189.407 403.119 184.207C403.119 179.007 404.052 174.207 405.919 169.807C407.852 165.407 410.552 161.574 414.019 158.307C417.485 155.04 421.552 152.507 426.219 150.707C430.885 148.907 435.952 148.007 441.419 148.007C446.952 148.007 452.019 148.907 456.619 150.707C461.285 152.507 465.319 155.04 468.719 158.307C472.185 161.574 474.885 165.407 476.819 169.807C478.752 174.14 479.719 178.94 479.719 184.207C479.719 189.407 478.752 194.24 476.819 198.707C474.885 203.107 472.185 206.94 468.719 210.207C465.319 213.407 461.285 215.907 456.619 217.707C452.019 219.507 446.985 220.407 441.519 220.407ZM441.419 206.607C444.552 206.607 447.419 206.074 450.019 205.007C452.685 203.94 455.019 202.407 457.019 200.407C459.019 198.407 460.552 196.04 461.619 193.307C462.752 190.574 463.319 187.54 463.319 184.207C463.319 180.874 462.752 177.84 461.619 175.107C460.552 172.374 459.019 170.007 457.019 168.007C455.085 166.007 452.785 164.474 450.119 163.407C447.452 162.34 444.552 161.807 441.419 161.807C438.285 161.807 435.385 162.34 432.719 163.407C430.119 164.474 427.819 166.007 425.819 168.007C423.819 170.007 422.252 172.374 421.119 175.107C420.052 177.84 419.519 180.874 419.519 184.207C419.519 187.474 420.052 190.507 421.119 193.307C422.252 196.04 423.785 198.407 425.719 200.407C427.719 202.407 430.052 203.94 432.719 205.007C435.385 206.074 438.285 206.607 441.419 206.607Z" fill="white"/>
<path d="M514.894 220.407C509.294 220.407 503.927 219.674 498.794 218.207C493.66 216.674 489.527 214.707 486.394 212.307L491.894 200.107C494.894 202.24 498.427 204.007 502.494 205.407C506.627 206.74 510.794 207.407 514.994 207.407C518.194 207.407 520.76 207.107 522.694 206.507C524.694 205.84 526.16 204.94 527.094 203.807C528.027 202.674 528.494 201.374 528.494 199.907C528.494 198.04 527.76 196.574 526.294 195.507C524.827 194.374 522.894 193.474 520.494 192.807C518.094 192.074 515.427 191.407 512.494 190.807C509.627 190.14 506.727 189.34 503.794 188.407C500.927 187.474 498.294 186.274 495.894 184.807C493.494 183.34 491.527 181.407 489.994 179.007C488.527 176.607 487.794 173.54 487.794 169.807C487.794 165.807 488.86 162.174 490.994 158.907C493.194 155.574 496.46 152.94 500.794 151.007C505.194 149.007 510.694 148.007 517.294 148.007C521.694 148.007 526.027 148.54 530.294 149.607C534.56 150.607 538.327 152.14 541.594 154.207L536.594 166.507C533.327 164.64 530.06 163.274 526.794 162.407C523.527 161.474 520.327 161.007 517.194 161.007C514.06 161.007 511.494 161.374 509.494 162.107C507.494 162.84 506.06 163.807 505.194 165.007C504.327 166.14 503.894 167.474 503.894 169.007C503.894 170.807 504.627 172.274 506.094 173.407C507.56 174.474 509.494 175.34 511.894 176.007C514.294 176.674 516.927 177.34 519.794 178.007C522.727 178.674 525.627 179.44 528.494 180.307C531.427 181.174 534.094 182.34 536.494 183.807C538.894 185.274 540.827 187.207 542.294 189.607C543.827 192.007 544.594 195.04 544.594 198.707C544.594 202.64 543.494 206.24 541.294 209.507C539.094 212.774 535.794 215.407 531.394 217.407C527.06 219.407 521.56 220.407 514.894 220.407Z" fill="white"/>
<path d="M569.187 219.207V162.407H546.787V149.207H607.787V162.407H585.387V219.207H569.187Z" fill="white"/>
<path fill-rule="evenodd" clip-rule="evenodd" d="M246.679 149.207V219.207H282.879C292.079 219.207 299.046 217.54 303.779 214.207C308.512 210.807 310.879 206.107 310.879 200.107C310.879 196.04 309.912 192.607 307.979 189.807C306.112 187.007 303.479 184.907 300.079 183.507C299.454 183.238 298.812 182.993 298.154 182.773C300.875 181.342 303.05 179.42 304.679 177.007C306.479 174.274 307.379 171.074 307.379 167.407C307.379 161.94 305.146 157.54 300.679 154.207C296.279 150.874 289.679 149.207 280.879 149.207H246.679ZM281.679 207.007H262.779V189.707H281.679C285.879 189.707 289.046 190.44 291.179 191.907C293.379 193.307 294.479 195.474 294.479 198.407C294.479 201.407 293.379 203.607 291.179 205.007C289.046 206.34 285.879 207.007 281.679 207.007ZM262.779 177.907V161.407H278.879C282.812 161.407 285.812 162.107 287.879 163.507C290.012 164.84 291.079 166.874 291.079 169.607C291.079 172.407 290.012 174.507 287.879 175.907C285.812 177.24 282.812 177.907 278.879 177.907H262.779Z" fill="white"/>
<path fill-rule="evenodd" clip-rule="evenodd" d="M632.535 55.407H600.035V40.207H636.835V27.207H583.935V97.207H638.135V84.207H600.035V68.007H632.535V55.407Z" fill="white"/>
<path fill-rule="evenodd" clip-rule="evenodd" d="M212.157 27.207V97.207H227.357V56.0978L247.857 89.807H255.157L275.767 55.1928L275.857 97.207H291.057L290.857 27.207H277.557L251.777 70.6724L225.557 27.207H212.157Z" fill="white"/>
</svg>
