<svg width="204" height="220" viewBox="0 0 204 220" fill="none" xmlns="http://www.w3.org/2000/svg">
<path d="M34.5774 218.965C36.6927 218.048 69.6766 214.852 85.0011 214.079L87.7888 213.938L87.9828 208.91C88.1667 204.145 89.1304 200.162 91.5306 194.247C92.1484 192.725 92.0882 192.294 90.9393 190.013C89.3136 186.785 88.929 181.523 90.0414 177.728C90.7316 175.374 90.7391 174.689 90.0979 172.559C89.3198 169.973 89.1373 167.494 89.6847 166.946C89.8638 166.767 91.2334 167.446 92.7281 168.455C98.8944 172.618 109.313 175.418 120.058 175.802C123.697 175.932 126.078 175.918 125.351 175.772C118.964 174.486 109.564 171.938 105.901 170.5C99.0642 167.816 94.6968 164.935 88.1772 158.81C84.8972 155.729 81.4394 152.835 80.4933 152.379C79.5472 151.923 78.7749 151.416 78.7772 151.251C78.7794 151.087 79.7824 150.38 81.0061 149.681C82.624 148.757 84.3916 148.323 87.4858 148.091L91.7407 147.772L89.0943 146.98C81.595 144.737 76.0956 146.757 64.6685 155.951C52.5568 165.696 42.2127 168.473 30.0784 165.238C28.4773 164.811 25.5921 164.459 23.6668 164.456C15.3048 164.44 12.0325 162.77 9.08595 157.01C7.12247 153.172 4.08812 144.267 2.53871 137.795C-0.582558 124.758 0.0254517 100.684 3.83682 86.3949C6.25231 77.3392 6.9408 76.0171 10.8966 72.8382C12.8588 71.2612 16.6846 67.8354 19.3982 65.2252L24.3321 60.4794L26.8083 61.4409C28.1702 61.9697 30.9763 63.0335 33.0441 63.8049C37.7305 65.5531 38.2914 66.0231 39.0007 68.7961C39.4135 70.4102 40.017 71.2796 41.1767 71.9312C42.3855 72.6104 42.7814 73.2104 42.7814 74.3633C42.7814 76.8408 41.1543 77.8501 36.788 78.0812C33.701 78.2446 32.7416 78.5148 31.6663 79.5235C30.9385 80.2062 29.17 81.2834 27.7363 81.9174C24.3902 83.397 19.8937 83.0552 16.4939 81.0627C15.2321 80.3233 14.1997 79.9135 14.1997 80.1521C14.1997 80.7934 15.8558 83.0431 17.2225 84.2583C18.3039 85.2199 18.3663 85.5381 17.8819 87.6216C16.8327 92.1341 18.1613 96.2689 24.7957 109.138C31.2924 121.741 32.4617 125.314 32.4166 132.427C32.3835 137.645 32.1905 138.505 29.3282 146.189C29.1113 146.771 30.0106 146.109 31.3265 144.718C35.1668 140.657 37.0064 134.071 35.9903 128.021L35.517 125.203L37.4666 123.972C39.7274 122.545 43.1399 121.328 46.3795 120.792C48.2971 120.476 48.8713 120.071 50.0351 118.218C50.7945 117.009 53.1054 114.331 55.1703 112.268C61.5462 105.897 70.0987 102.649 76.9016 104.016C80.8517 104.809 85.2897 107.061 88.3844 109.844C89.7937 111.111 90.9468 111.903 90.9468 111.604C90.9468 110.402 89.9199 108.49 88.4007 106.864L86.7972 105.148L88.7397 104.337C91.2552 103.288 93.7051 100.919 96.365 96.9648C97.5397 95.2181 99.3571 92.8891 100.403 91.7892L102.306 89.7893L100.55 90.4016C99.3258 90.8282 97.9257 92.187 95.9327 94.8818C94.3595 97.0091 92.8476 98.8885 92.573 99.0583C92.2984 99.228 91.5089 98.802 90.8186 98.1117C90.1282 97.4214 89.2518 96.7527 88.871 96.6257C88.3857 96.464 88.8247 95.3953 90.3392 93.052C94.0579 87.2985 95.9985 80.336 94.7764 77.1323C94.3242 75.947 94.2411 76.0685 93.8863 78.4347C93.0811 83.8045 89.9531 90.1166 85.7529 94.8476C83.1516 97.7777 81.4693 98.8098 79.2878 98.8138C76.8821 98.8182 75.3002 97.6841 74.5526 95.4186C74.2245 94.4245 73.3907 93.2407 72.6997 92.7879C72.0087 92.3352 71.3016 91.5182 71.1284 90.9724C70.9551 90.4266 70.2396 89.7186 69.5383 89.399C68.7187 89.0256 68.2023 88.2877 68.0929 87.3339C67.9134 85.7691 67.6559 85.7081 64.1875 86.4075C61.6065 86.928 61.1249 85.8656 61.4752 80.4246C61.6392 77.8773 61.9334 75.1425 62.1291 74.3473C62.4287 73.1293 62.2752 72.8217 61.1552 72.3959C59.527 71.7768 58.1308 69.8785 58.1308 68.2838C58.1308 67.631 57.7586 66.0007 57.3038 64.661C56.8489 63.3212 56.4767 60.6986 56.4767 58.8329C56.4767 51.0132 63.7959 41.7593 73.9671 36.7193C78.3128 34.566 78.5672 34.5085 83.7615 34.5085C88.6307 34.5085 89.3933 34.651 92.5347 36.1479C101.067 40.2138 106.217 48.284 106.336 57.7762C106.359 59.5345 106.656 61.7332 106.998 62.6624C108.501 66.7472 117.157 74.6056 120.934 75.3143C123.002 75.7023 127.25 74.0555 128.909 72.2228C129.79 71.2492 129.767 71.2269 128.247 71.5684C127.382 71.7628 126.257 72.0349 125.748 72.173C124.374 72.5455 124.588 71.372 126.647 67.2633C132.183 56.2112 143.214 48.7446 156.737 46.8966C161.959 46.1829 161.79 45.6517 156.109 44.9282L153.258 44.565L155.051 42.7973C157.151 40.7261 160.885 38.7113 163.549 38.2116C164.585 38.0173 168.978 37.8096 173.311 37.7501C179.843 37.6604 181.585 37.4645 183.493 36.6045L185.796 35.5671L181.376 35.5421C178.945 35.5283 173.741 35.3199 169.811 35.0789C161.811 34.5884 159.232 35.0038 156.617 37.2041L155.019 38.5485L152.491 36.8193C151.1 35.8682 148.057 33.0575 145.728 30.5733C137.817 22.1348 135.61 20.1724 132.545 18.8533L129.566 17.5712L129.947 14.6601C130.433 10.942 130.283 8.45474 129.452 6.45612C128.809 4.91077 128.783 4.96038 128.479 8.30865C128.096 12.522 126.396 16.2443 124.285 17.4914C123.414 18.0056 121.779 19.7858 120.65 21.4475C119.522 23.1092 118.034 24.7464 117.343 25.0858C116.653 25.4251 113.734 25.8066 110.857 25.9335C104.605 26.2094 104.059 25.8744 103.134 21.1913C102.798 19.4914 102.162 16.9696 101.721 15.5873C101.274 14.1867 101.066 12.4061 101.25 11.5654C101.754 9.27038 104.561 6.95302 108.035 5.96422C109.719 5.48484 112.579 4.2779 114.39 3.28213C121.407 -0.57441 127.326 -0.991916 134.118 1.89072C138.251 3.64501 142.293 4.81979 153.403 7.49607C166.015 10.534 173.361 13.8009 180.791 19.676C187.996 25.3735 195.476 35.4977 195.441 39.5054C195.433 40.5415 194.571 43.652 193.527 46.4176C192.483 49.1831 191.13 53.9065 190.518 56.914C188.723 65.7517 185.876 70.3045 179.366 74.753C177.316 76.1533 175.54 77.1984 175.418 77.0754C175.296 76.9524 175.404 75.7799 175.656 74.4699C176.991 67.5644 175.71 61.1733 172.198 57.2136L170.369 55.1509L171.759 58.5912C172.857 61.3061 173.161 62.9804 173.201 66.5306C173.248 70.7313 171.879 78.2891 170.869 79.4046C170.652 79.6443 169.951 78.9932 169.311 77.9578C168.183 76.1324 165.616 73.7251 165.22 74.1211C165.112 74.2285 166.561 77.4731 168.439 81.3312C172.033 88.7146 174.667 96.2445 175.666 101.993C176.009 103.966 176.199 109.498 176.111 114.961C176.027 120.201 176.151 127.465 176.387 131.104C177.259 144.523 174.12 154.636 163.326 173.183C158.695 181.139 154.458 189.612 152.87 194.09C152.2 195.982 151.468 197.738 151.244 197.992C151.021 198.246 150.165 197.98 149.342 197.399C147.553 196.138 142.3 194.273 139.444 193.884C138.316 193.731 137.482 193.691 137.591 193.795C137.7 193.899 139.694 195.256 142.022 196.809C147.44 200.426 153.55 206.206 156.1 210.129C157.199 211.819 158.18 213.449 158.281 213.753C158.384 214.061 161.379 214.513 165.064 214.776C179.263 215.791 201.766 218.248 203.421 218.965C204.024 219.226 167.665 219.424 118.999 219.424C70.3094 219.424 33.9744 219.226 34.5774 218.965ZM106.139 207.436L108.363 201.764L106.762 203.617C105.164 205.467 101.003 212.085 101.003 212.778C101.003 212.979 101.658 213.136 102.459 213.126C103.814 213.11 104.068 212.716 106.139 207.436ZM152.713 169.742C152.567 166.54 152.076 163.525 151.362 161.442C150.34 158.46 150.293 157.781 150.83 153.79C151.171 151.256 151.304 145.942 151.147 141.183C150.839 131.87 149.628 126.646 146.111 119.46C143.827 114.793 136.633 107.098 132.761 105.18L130.379 104L133.096 106.834C139.878 113.905 144.32 123.246 146.246 134.481C147.149 139.75 147.284 151.024 146.516 156.944C146.045 160.572 146.098 160.987 147.361 163.478C149.064 166.84 150.505 172.495 151.047 177.946L151.468 182.18L152.205 178.475C152.66 176.187 152.855 172.847 152.713 169.742Z" fill="#830000"/>
</svg>
