<svg width="448" height="384" viewBox="0 0 448 384" fill="none" xmlns="http://www.w3.org/2000/svg">
<path d="M416 160H31.1C14.33 160 0 174.3 0 192C0 209.7 14.33 224 31.1 224H415.1C433.7 224 448 209.7 448 192C448 174.3 433.7 160 416 160ZM416 320H31.1C14.33 320 0 334.3 0 351.1C0 367.9 14.33 384 31.1 384H415.1C433.7 384 448 369.7 448 352C448 334.3 433.7 320 416 320ZM416 0H31.1C14.33 0 0 14.33 0 31.1C0 47.87 14.33 64 31.1 64H415.1C433.7 64 448 49.7 448 32C448 14.3 433.7 0 416 0Z" fill="black"/>
</svg>
