<svg width="496" height="501" viewBox="0 0 496 501" fill="none" xmlns="http://www.w3.org/2000/svg">
<path d="M482.843 500.94H356.756C352.408 500.94 350.234 498.766 348.06 496.592L248.06 322.679L148.06 494.418C145.886 498.766 143.712 498.766 139.365 498.766H13.2773C8.92952 498.766 6.75561 496.592 4.5817 494.418C2.40778 492.244 2.40778 487.896 4.5817 483.548C4.5817 481.374 6.75561 479.2 6.75561 479.2L137.191 250.94L4.5817 20.5047C4.5817 18.3308 2.40778 18.3308 2.40778 16.1569C0.233866 11.809 0.233866 7.46119 2.40778 5.28728C4.58169 3.11337 8.92952 0.939453 13.2773 0.939453H139.365C143.712 0.939453 145.886 3.11337 148.06 5.28728L248.06 179.2L348.06 7.46119C350.234 3.11337 352.408 3.11337 356.756 3.11337H485.017C489.364 3.11337 491.538 5.28728 493.712 7.46119C495.886 9.6351 495.886 13.9829 493.712 18.3308C493.712 20.5047 491.538 22.6786 491.538 22.6786L358.93 250.94L491.538 481.374C491.538 483.548 493.712 483.548 493.712 485.722C495.886 490.07 495.886 494.418 493.712 496.592C491.538 498.766 487.191 500.94 482.843 500.94Z" fill="#830000"/>
</svg>
