<svg width="226" height="226" viewBox="0 0 226 226" fill="none" xmlns="http://www.w3.org/2000/svg">
<path d="M112.82 135.113C143.837 135.113 168.981 104.892 168.981 67.6133C168.981 30.3341 143.837 0.113281 112.82 0.113281C81.8034 0.113281 56.6593 30.3341 56.6593 67.6133C56.6593 104.892 81.8034 135.113 112.82 135.113Z" fill="#830000"/>
<path d="M222.896 192.488C212.787 172.238 193.692 155.363 168.981 145.238C162.242 142.988 154.379 142.988 148.763 146.363C137.531 153.113 126.299 156.488 112.82 156.488C99.3417 156.488 88.1095 153.113 76.8773 146.363C71.2612 144.113 63.3986 142.988 56.6593 146.363C31.9484 156.488 12.8537 173.363 2.74469 193.613C-5.11785 208.238 7.23757 225.113 24.0859 225.113H201.555C218.403 225.113 230.758 208.238 222.896 192.488Z" fill="#830000"/>
</svg>
