<svg width="501" height="501" viewBox="0 0 501 501" fill="none" xmlns="http://www.w3.org/2000/svg">
<path d="M499.361 9.09391C496.151 57.6013 487.159 104.929 470.019 150.522C454.967 190.564 435.168 228.076 408.311 261.526C387.065 287.989 361.773 310.078 332.304 326.961C322.74 332.439 318.074 339.05 320.757 349.845C324.677 365.608 317.568 377.711 308.559 389.537C279.95 427.094 245.912 458.728 206.411 484.579C197.263 490.566 188.554 497.182 177.56 499.567C171.248 500.938 169.74 500.022 170.058 493.651C170.564 483.561 173.855 473.971 175.992 464.181C180.739 442.436 185.794 420.758 190.549 399.016C191.264 395.743 192.856 391.629 189.691 389.146C186.765 386.851 183.278 389.164 180.217 390.371C177.242 391.543 174.324 392.886 171.453 394.299C165.154 397.402 159.477 396.375 153.864 392.382C144.641 385.82 137.189 377.38 129.283 369.454C122.095 362.247 114.674 355.236 108.352 347.171C103.508 340.994 102.634 334.702 106.18 327.692C107.889 324.316 109.536 320.884 110.86 317.345C113.439 310.445 111.393 307.803 104.155 309.031C97.277 310.199 90.4913 311.912 83.6736 313.425C59.9623 318.688 36.2528 323.962 12.5466 329.25C9.53616 329.923 6.5392 330.136 3.46474 329.741C0.447556 329.353 -0.382973 327.82 0.172957 324.919C1.64701 317.237 4.49404 310.078 8.81008 303.635C28.527 274.202 49.2548 245.566 75.4913 221.408C90.3868 207.694 105.437 194.165 122.654 183.337C129.278 179.171 136.465 177.455 144.341 178.593C148.943 179.259 153.61 179.542 158.257 179.82C162.856 180.096 166.293 178.189 168.791 174.186C174.88 164.436 180.988 154.705 187.703 145.347C201.458 126.178 217.423 109.106 235.653 94.1966C277.029 60.354 324.091 37.2981 374.863 21.385C414.558 8.94397 455.392 3.01743 496.748 0.0339432C499.709 -0.180005 500.376 0.728009 499.846 3.43353C499.492 5.28495 499.511 7.20712 499.361 9.09391ZM364.895 175.797C387.09 176.196 405.986 157.721 406.231 135.386C406.482 112.433 388.609 93.7519 365.996 93.329C342.779 92.8961 324.123 110.955 323.739 134.24C323.362 157.054 341.507 175.377 364.895 175.797Z" fill="white"/>
<path d="M132.801 398.878C138.339 403.5 139.473 409.265 139.74 415.082C140.64 434.579 128.812 459.408 100.825 462.292C82.1327 464.218 63.4265 465.832 44.6613 466.659C36.9524 466.999 33.3979 463.14 33.5579 455.46C33.6068 453.13 33.6842 450.798 33.8527 448.473C35.0892 431.349 35.8524 414.178 38.2294 397.158C41.7334 372.08 68.8022 354.69 92.8571 361.92C93.8291 362.213 94.8146 362.508 95.7293 362.939C97.5757 363.807 100.178 364.71 100.266 366.63C100.364 368.795 97.4073 368.297 95.8405 369.004C83.6893 374.498 76.3796 384.471 71.1253 396.113C66.1842 407.058 64.8736 418.746 65.2914 430.685C65.3908 433.537 66.3325 434.671 69.348 434.804C89.5518 435.687 107.685 430.812 122.665 416.486C127.631 411.735 130.972 406.11 132.801 398.878Z" fill="white"/>
</svg>
