<svg width="504" height="504" viewBox="0 0 504 504" fill="none" xmlns="http://www.w3.org/2000/svg">
<path d="M233.915 503C362.115 503 466.042 399.074 466.042 270.874C466.042 210.315 442.852 155.173 404.867 113.843L392.225 112.568L365.241 139.549C398.841 173.149 419.616 219.574 419.616 270.874C419.616 373.474 336.515 456.575 233.915 456.575C131.316 456.575 48.2143 373.474 48.2143 270.874C48.2143 168.274 131.316 85.173 233.915 85.173C285.215 85.173 331.64 105.948 365.241 139.549L392.225 112.568L392.224 112.56L390.95 99.9254C349.619 61.9391 294.476 38.7477 233.915 38.7477C105.716 38.7477 1.78906 142.674 1.78906 270.874C1.78906 399.074 105.716 503 233.915 503Z" fill="#FF5751"/>
<path d="M48.2143 270.874C48.2143 373.474 131.316 456.575 233.915 456.575C336.515 456.575 419.616 373.474 419.616 270.874C419.616 219.574 398.841 173.149 365.241 139.549L332.279 172.51C357.523 197.754 373.191 232.573 373.191 270.874C373.191 347.476 310.517 410.15 233.915 410.15C157.314 410.15 94.6396 347.476 94.6396 270.874C94.6396 194.272 157.314 131.598 233.915 131.598C272.216 131.598 307.035 147.267 332.279 172.51L365.241 139.549C331.64 105.948 285.215 85.173 233.915 85.173C131.316 85.173 48.2143 168.274 48.2143 270.874Z" fill="#D9D9D9"/>
<path d="M94.6396 270.874C94.6396 347.476 157.314 410.15 233.915 410.15C310.517 410.15 373.191 347.476 373.191 270.874C373.191 232.573 357.523 197.754 332.279 172.51L299.491 205.298C316.32 222.127 326.766 245.34 326.766 270.874C326.766 321.942 284.983 363.725 233.915 363.725C182.848 363.725 141.065 321.942 141.065 270.874C141.065 219.806 182.848 178.023 233.915 178.023C259.449 178.023 282.662 188.469 299.491 205.298L332.279 172.51C307.035 147.267 272.216 131.598 233.915 131.598C157.314 131.598 94.6396 194.272 94.6396 270.874Z" fill="#FF5751"/>
<path d="M141.065 270.874C141.065 321.942 182.848 363.725 233.915 363.725C284.983 363.725 326.766 321.942 326.766 270.874C326.766 245.34 316.32 222.127 299.491 205.298L266.703 238.086C275.118 246.501 280.341 258.107 280.341 270.874C280.341 296.408 259.449 317.299 233.915 317.299C208.381 317.299 187.49 296.408 187.49 270.874C187.49 245.34 208.381 224.449 233.915 224.449C239.454 224.449 244.774 225.432 249.71 227.232C256.152 229.581 261.939 233.322 266.703 238.086L299.491 205.298C282.662 188.469 259.449 178.023 233.915 178.023C182.848 178.023 141.065 219.806 141.065 270.874Z" fill="#D9D9D9"/>
<path d="M187.49 270.874C187.49 296.408 208.381 317.299 233.915 317.299C259.449 317.299 280.341 296.408 280.341 270.874C280.341 258.107 275.118 246.501 266.703 238.086C261.939 233.322 256.152 229.581 249.71 227.232C244.774 225.432 239.454 224.449 233.915 224.449C208.381 224.449 187.49 245.34 187.49 270.874Z" fill="#FF5751"/>
<path d="M398.053 106.736C400.372 109.054 402.641 111.421 404.86 113.836L442.827 117.667L481.822 78.6727L501.781 58.7134L451.186 53.6074L451.184 53.6002L415.906 88.878V88.8834L398.053 106.736Z" fill="#83D689"/>
<path d="M446.079 3.00391L387.119 61.964L390.95 99.9254C393.365 102.146 395.734 104.416 398.053 106.736L415.906 88.878L451.184 53.6002L446.079 3.00391Z" fill="#83D689"/>
<path d="M443.829 270.874C443.829 270.322 443.381 269.874 442.829 269.874C442.277 269.874 441.829 270.322 441.829 270.874H443.829ZM233.915 478.788C233.363 478.788 232.915 479.235 232.915 479.788C232.915 480.34 233.363 480.788 233.915 480.788V478.788ZM24.0017 270.874C24.0017 271.426 24.4494 271.874 25.0017 271.874C25.554 271.874 26.0017 271.426 26.0017 270.874H24.0017ZM233.915 62.9604C234.468 62.9604 234.915 62.5126 234.915 61.9604C234.915 61.4081 234.468 60.9604 233.915 60.9604V62.9604ZM233.208 270.167C232.818 270.557 232.818 271.191 233.208 271.581C233.599 271.972 234.232 271.972 234.622 271.581L233.208 270.167ZM443.536 62.6675C443.927 62.2769 443.927 61.6438 443.536 61.2532C443.146 60.8627 442.512 60.8627 442.122 61.2532L443.536 62.6675ZM442.829 117.674L442.729 118.669L443.201 118.717L443.536 118.381L442.829 117.674ZM387.119 61.964L386.412 61.2569L386.076 61.5924L386.124 62.0644L387.119 61.964ZM446.079 3.00391L447.074 2.9035L446.862 0.806383L445.372 2.2968L446.079 3.00391ZM451.186 53.6074L450.215 53.849L450.385 54.5317L451.085 54.6024L451.186 53.6074ZM501.789 58.7142L502.496 59.4213L503.986 57.9316L501.89 57.7193L501.789 58.7142ZM442.827 117.667L442.727 118.662L443.199 118.71L443.534 118.374L442.827 117.667ZM392.224 112.56L391.229 112.661L391.236 112.732L391.253 112.802L392.224 112.56ZM501.787 58.707L502.495 59.4133L503.982 57.9234L501.888 57.712L501.787 58.707ZM229.962 245.565C229.572 245.956 229.572 246.589 229.962 246.979C230.353 247.37 230.986 247.37 231.376 246.979L229.962 245.565ZM275.016 203.34C275.407 202.949 275.407 202.316 275.016 201.925C274.626 201.535 273.992 201.535 273.602 201.925L275.016 203.34ZM416.906 33.1803C416.906 32.628 416.458 32.1803 415.906 32.1803C415.354 32.1803 414.906 32.628 414.906 33.1803H416.906ZM414.906 88.8906C414.906 89.4429 415.354 89.8906 415.906 89.8906C416.458 89.8906 416.906 89.4429 416.906 88.8906H414.906ZM403.395 46.3399C403.228 45.8137 402.665 45.5232 402.139 45.6909C401.613 45.8586 401.322 46.4212 401.49 46.9474L403.395 46.3399ZM436.025 70.2582C435.48 70.1701 434.966 70.5407 434.878 71.0859C434.79 71.6311 435.16 72.1445 435.706 72.2326L436.025 70.2582ZM481.667 79.6606C482.212 79.7488 482.725 79.3782 482.813 78.833C482.902 78.2878 482.531 77.7744 481.986 77.6863L481.667 79.6606ZM465.042 270.874C465.042 398.522 361.563 502 233.915 502V504C362.667 504 467.042 399.626 467.042 270.874H465.042ZM233.915 502C106.268 502 2.78906 398.522 2.78906 270.874H0.789062C0.789062 399.626 105.163 504 233.915 504V502ZM2.78906 270.874C2.78906 143.226 106.268 39.7477 233.915 39.7477V37.7477C105.163 37.7477 0.789062 142.122 0.789062 270.874H2.78906ZM233.915 455.575C131.868 455.575 49.2143 372.922 49.2143 270.874H47.2143C47.2143 374.026 130.763 457.575 233.915 457.575V455.575ZM49.2143 270.874C49.2143 168.826 131.868 86.173 233.915 86.173V84.173C130.763 84.173 47.2143 167.722 47.2143 270.874H49.2143ZM418.616 270.874C418.616 372.922 335.963 455.575 233.915 455.575V457.575C337.067 457.575 420.616 374.026 420.616 270.874H418.616ZM233.915 409.15C157.866 409.15 95.6396 346.923 95.6396 270.874H93.6396C93.6396 348.028 156.761 411.15 233.915 411.15V409.15ZM95.6396 270.874C95.6396 194.825 157.866 132.598 233.915 132.598V130.598C156.761 130.598 93.6396 193.72 93.6396 270.874H95.6396ZM372.191 270.874C372.191 346.923 309.965 409.15 233.915 409.15V411.15C311.069 411.15 374.191 348.028 374.191 270.874H372.191ZM233.915 362.725C183.4 362.725 142.065 321.39 142.065 270.874H140.065C140.065 322.494 182.295 364.725 233.915 364.725V362.725ZM142.065 270.874C142.065 220.359 183.4 179.023 233.915 179.023V177.023C182.295 177.023 140.065 219.254 140.065 270.874H142.065ZM325.766 270.874C325.766 321.39 284.431 362.725 233.915 362.725V364.725C285.535 364.725 327.766 322.494 327.766 270.874H325.766ZM233.915 316.299C208.934 316.299 188.49 295.856 188.49 270.874H186.49C186.49 296.96 207.829 318.299 233.915 318.299V316.299ZM188.49 270.874C188.49 245.892 208.934 225.449 233.915 225.449V223.449C207.829 223.449 186.49 244.788 186.49 270.874H188.49ZM279.341 270.874C279.341 295.856 258.897 316.299 233.915 316.299V318.299C260.002 318.299 281.341 296.96 281.341 270.874H279.341ZM441.829 270.874C441.829 385.921 348.962 478.788 233.915 478.788V480.788C350.067 480.788 443.829 387.025 443.829 270.874H441.829ZM26.0017 270.874C26.0017 155.827 118.869 62.9604 233.915 62.9604V60.9604C117.764 60.9604 24.0017 154.723 24.0017 270.874H26.0017ZM387.826 62.6711L446.786 3.71101L445.372 2.2968L386.412 61.2569L387.826 62.6711ZM445.084 3.10431L450.191 53.7078L452.181 53.507L447.074 2.9035L445.084 3.10431ZM501.082 58.0071L442.122 116.967L443.536 118.381L502.496 59.4213L501.082 58.0071ZM451.083 54.5951L501.687 59.7019L501.888 57.712L451.284 52.6052L451.083 54.5951ZM397.346 107.443C399.655 109.751 401.914 112.108 404.124 114.512L405.596 113.159C403.368 110.734 401.089 108.357 398.761 106.029L397.346 107.443ZM404.76 114.83L442.727 118.662L442.928 116.672L404.961 112.841L404.76 114.83ZM443.534 118.374L482.529 79.3798L481.114 77.9656L442.12 116.96L443.534 118.374ZM482.529 79.3798L502.488 59.4205L501.074 58.0063L481.114 77.9656L482.529 79.3798ZM501.881 57.7184L451.286 52.6125L451.085 54.6024L501.68 59.7083L501.881 57.7184ZM452.156 53.3659L452.154 53.3586L450.213 53.8417L450.215 53.849L452.156 53.3659ZM450.477 52.8931L415.199 88.1709L416.613 89.5851L451.891 54.3073L450.477 52.8931ZM414.906 88.878V88.8834H416.906V88.878H414.906ZM414.906 88.8834V88.8906H416.906V88.8834H414.906ZM415.199 88.1763L397.346 106.029L398.761 107.443L416.613 89.5905L415.199 88.1763ZM416.859 88.5743L403.395 46.3399L401.49 46.9474L414.953 89.1817L416.859 88.5743ZM414.906 33.1803V88.878H416.906V33.1803H414.906ZM501.68 59.7083L501.688 59.7091L501.89 57.7193L501.882 57.7185L501.68 59.7083ZM404.961 112.841L392.324 111.565L392.123 113.555L404.76 114.83L404.961 112.841ZM392.93 113.268L398.76 107.443L397.347 106.029L391.517 111.853L392.93 113.268ZM398.761 107.443L416.613 89.585L415.199 88.171L397.346 106.029L398.761 107.443ZM501.079 58.0006L501.073 58.007L502.489 59.4198L502.495 59.4133L501.079 58.0006ZM416.613 89.5905L443.536 62.6675L442.122 61.2532L415.199 88.1763L416.613 89.5905ZM435.706 72.2326L481.662 79.6599L481.981 77.6855L436.025 70.2582L435.706 72.2326ZM481.662 79.6599L481.667 79.6606L481.986 77.6863L481.981 77.6855L481.662 79.6599ZM386.124 62.0644L389.955 100.026L391.945 99.825L388.114 61.8636L386.124 62.0644ZM390.273 100.662C392.678 102.872 395.037 105.133 397.346 107.443L398.761 106.029C396.431 103.699 394.052 101.419 391.626 99.1891L390.273 100.662ZM452.179 53.4998L447.074 2.90352L445.084 3.10429L450.189 53.7006L452.179 53.4998ZM233.915 39.7477C294.215 39.7477 349.12 62.8383 390.273 100.662L391.626 99.1891C350.119 61.0399 294.736 37.7477 233.915 37.7477V39.7477ZM393.22 112.467L391.945 99.825L389.955 100.026L391.231 112.668L393.22 112.467ZM467.042 270.874C467.042 210.055 443.751 154.674 405.604 113.167L404.131 114.52C441.952 155.673 465.042 210.576 465.042 270.874H467.042ZM404.968 112.848L392.326 111.573L392.125 113.562L404.767 114.838L404.968 112.848ZM391.518 111.86L364.534 138.841L365.948 140.256L392.933 113.275L391.518 111.86ZM364.534 140.256C397.954 173.676 418.616 219.85 418.616 270.874H420.616C420.616 219.298 399.728 172.622 365.948 138.841L364.534 140.256ZM233.915 86.173C284.94 86.173 331.113 106.835 364.534 140.256L365.948 138.841C332.168 105.061 285.491 84.173 233.915 84.173V86.173ZM393.196 112.326L393.194 112.319L391.253 112.802L391.255 112.809L393.196 112.326ZM393.219 112.46L391.945 99.825L389.955 100.026L391.229 112.661L393.219 112.46ZM365.948 140.256L398.761 107.443L397.346 106.029L364.534 138.841L365.948 140.256ZM404.123 114.511L404.13 114.519L405.604 113.167L405.597 113.16L404.123 114.511ZM442.929 116.679L404.968 112.848L404.767 114.838L442.729 118.669L442.929 116.679ZM364.534 138.841L331.572 171.803L332.986 173.218L365.948 140.256L364.534 138.841ZM331.572 173.218C356.637 198.283 372.191 232.851 372.191 270.874H374.191C374.191 232.295 358.408 197.225 332.986 171.803L331.572 173.218ZM233.915 132.598C271.938 132.598 306.506 148.152 331.572 173.218L332.986 171.803C307.564 146.381 272.494 130.598 233.915 130.598V132.598ZM331.572 171.803L298.784 204.591L300.198 206.005L332.986 173.218L331.572 171.803ZM298.784 206.005C315.435 222.656 325.766 245.618 325.766 270.874H327.766C327.766 245.062 317.206 221.599 300.198 204.591L298.784 206.005ZM233.915 179.023C259.171 179.023 282.133 189.355 298.784 206.005L300.198 204.591C283.191 187.584 259.727 177.023 233.915 177.023V179.023ZM298.784 204.591L265.996 237.379L267.41 238.793L300.198 206.005L298.784 204.591ZM265.996 238.793C274.232 247.03 279.341 258.385 279.341 270.874H281.341C281.341 257.829 276.003 245.972 267.41 237.379L265.996 238.793ZM233.915 225.449C239.335 225.449 244.539 226.41 249.367 228.171L250.052 226.292C245.009 224.453 239.573 223.449 233.915 223.449V225.449ZM249.367 228.171C255.669 230.469 261.333 234.13 265.996 238.793L267.41 237.379C262.545 232.514 256.634 228.692 250.052 226.292L249.367 228.171ZM231.376 246.979L250.417 227.939L249.003 226.525L229.962 245.565L231.376 246.979ZM250.417 227.939L275.016 203.34L273.602 201.925L249.003 226.525L250.417 227.939ZM234.622 271.581L267.41 238.793L265.996 237.379L233.208 270.167L234.622 271.581Z" fill="black"/>
</svg>
