<svg width="18" height="18" viewBox="0 0 18 18" fill="none" xmlns="http://www.w3.org/2000/svg">
<path d="M17.56 15.44L12.89 10.77C13.8208 9.31654 14.1818 7.57041 13.9036 5.86699C13.6255 4.16357 12.7278 2.62297 11.383 1.54107C10.0382 0.459161 8.34108 -0.0877706 6.61762 0.0053111C4.89415 0.0983928 3.26583 0.824925 2.04538 2.04538C0.824925 3.26583 0.0983928 4.89415 0.0053111 6.61762C-0.0877706 8.34108 0.459161 10.0382 1.54107 11.383C2.62297 12.7278 4.16357 13.6255 5.86699 13.9036C7.57041 14.1818 9.31654 13.8208 10.77 12.89L15.44 17.56C15.7213 17.8409 16.1025 17.9987 16.5 17.9987C16.8975 17.9987 17.2788 17.8409 17.56 17.56C17.7003 17.4214 17.8117 17.2564 17.8877 17.0744C17.9638 16.8925 18.0029 16.6972 18.0029 16.5C18.0029 16.3028 17.9638 16.1076 17.8877 15.9256C17.8117 15.7437 17.7003 15.5786 17.56 15.44ZM2.00004 7.00004C2.00004 6.01113 2.29328 5.04443 2.84269 4.22219C3.3921 3.39994 4.17299 2.75908 5.08662 2.38064C6.00025 2.0022 7.00559 1.90319 7.97549 2.09611C8.9454 2.28904 9.83631 2.76524 10.5356 3.4645C11.2348 4.16377 11.711 5.05468 11.904 6.02459C12.0969 6.99449 11.9979 7.99983 11.6194 8.91346C11.241 9.82709 10.6001 10.608 9.77789 11.1574C8.95564 11.7068 7.98895 12 7.00004 12C5.67396 12 4.40219 11.4733 3.4645 10.5356C2.52682 9.59789 2.00004 8.32612 2.00004 7.00004Z" fill="black"/>
</svg>
