<svg width="639" height="501" viewBox="0 0 639 501" fill="none" xmlns="http://www.w3.org/2000/svg">
<path d="M489.478 12.7161L482.721 92.0966L435.525 163.571L366.823 95.5935L319.614 12.7161H489.478Z" fill="#9DCAFC"/>
<path d="M319.614 12.7161L270.907 106.584L203.703 163.571L168.496 100.09L149.75 12.7161H319.614Z" fill="#9DCAFC"/>
<path d="M203.703 163.571L261.658 277.268L319.614 487.7L24.0727 191.297C16.4544 183.666 12.8201 173.563 13.1573 163.571H13.1698L101.389 144.051L203.703 163.571Z" fill="#9DCAFC"/>
<path d="M319.614 163.571L333.851 274.936L319.614 487.7L203.703 163.571L261.658 151.045L319.614 163.571Z" fill="white"/>
<path d="M435.525 163.571L419.776 284.928L319.614 487.7V163.571L377.569 134.06L435.525 163.571Z" fill="white"/>
<path d="M626.07 163.571C626.408 173.563 622.773 183.666 615.155 191.297L319.614 487.7L435.525 163.571L530.798 134.06L626.07 163.571Z" fill="#9DCAFC"/>
<path d="M626.07 163.571H435.525L489.478 12.7161L615.118 138.356C622.111 145.35 625.758 154.405 626.07 163.571Z" fill="white"/>
<path d="M319.614 12.7161L331.354 114.577L319.614 163.571H203.703L319.614 12.7161Z" fill="white"/>
<path d="M149.75 12.7161L203.703 163.571H13.1698H13.1573C13.4695 154.405 17.1163 145.35 24.1102 138.356L149.75 12.7161Z" fill="white"/>
<path d="M319.614 12.7161L435.525 163.571H319.614V12.7161Z" fill="white"/>
<path d="M623.949 129.524C494.782 0.581729 497.964 2.47757 493.679 0.952651C489.897 -0.392422 511.863 0.484311 149.754 0.22329C149.013 0.22329 147.978 0.324451 147.056 0.528022C141.795 1.70199 144.439 0.469332 15.2792 129.524C-4.28246 149.087 -4.0639 180.773 15.2292 200.121L310.604 496.356C315.484 501.474 323.753 501.424 328.593 496.385L623.997 200.121C643.405 180.659 643.39 148.967 623.949 129.524ZM609.467 151.081H453.256L494.591 35.4924C611.879 153.033 606.859 147.133 609.467 151.081ZM307.125 151.081H229.048L307.125 49.4639V151.081ZM332.103 49.4652L410.18 151.082H332.103V49.4652ZM344.959 25.2014H471.743L431.476 137.803L344.959 25.2014ZM207.751 137.803L167.483 25.2014H294.267L207.751 137.803ZM307.125 176.059V415.689L221.431 176.059H307.125ZM332.103 176.059H417.797L332.103 415.689V176.059ZM144.637 35.4924L185.972 151.081H29.7602C32.3954 147.095 27.4997 152.881 144.637 35.4924ZM28.3015 176.059H194.904L289.071 439.384C18.334 167.186 31.7522 182.94 28.3015 176.059ZM350.157 439.384L444.323 176.059H610.926C607.479 182.932 621.121 166.957 350.157 439.384Z" fill="#4269A7"/>
</svg>
